<svg width="49" height="49" viewBox="0 0 49 49" fill="none" xmlns="http://www.w3.org/2000/svg">
<path d="M28.7011 44.9167C28.2973 44.9166 27.9027 44.7968 27.567 44.5724C27.2313 44.3481 26.9697 44.0293 26.8152 43.6562C26.6607 43.2832 26.6203 42.8728 26.699 42.4768C26.7778 42.0808 26.9722 41.7171 27.2576 41.4315L35.2627 33.4254L27.2576 25.4182C27.068 25.2286 26.9177 25.0036 26.8151 24.7559C26.7125 24.5082 26.6597 24.2428 26.6597 23.9747C26.6597 23.7066 26.7125 23.4411 26.8151 23.1935C26.9177 22.9458 27.068 22.7207 27.2576 22.5312C27.4472 22.3416 27.6722 22.1912 27.9199 22.0886C28.1676 21.986 28.433 21.9332 28.7011 21.9332C28.9692 21.9332 29.2347 21.986 29.4823 22.0886C29.73 22.1912 29.9551 22.3416 30.1446 22.5312L39.5933 31.9818C39.783 32.1714 39.9334 32.3964 40.036 32.6441C40.1386 32.8918 40.1915 33.1573 40.1915 33.4254C40.1915 33.6935 40.1386 33.9589 40.036 34.2066C39.9334 34.4543 39.783 34.6793 39.5933 34.8689L30.1446 44.3185C29.9552 44.5084 29.7302 44.659 29.4825 44.7616C29.2348 44.8643 28.9692 44.917 28.7011 44.9167Z" fill="#0499DD"/>
<path d="M38.1496 35.467H19.0169C16.3105 35.4638 13.7158 34.3873 11.8021 32.4736C9.88832 30.5598 8.81178 27.9651 8.80859 25.2587V6.12504C8.80859 5.58356 9.0237 5.06425 9.40658 4.68136C9.78947 4.29848 10.3088 4.08337 10.8503 4.08337C11.3917 4.08337 11.9111 4.29848 12.2939 4.68136C12.6768 5.06425 12.8919 5.58356 12.8919 6.12504V25.2587C12.8937 26.8826 13.5396 28.4395 14.6879 29.5878C15.8361 30.736 17.393 31.3819 19.0169 31.3837H38.1496C38.6911 31.3837 39.2104 31.5988 39.5933 31.9817C39.9762 32.3646 40.1913 32.8839 40.1913 33.4254C40.1913 33.9668 39.9762 34.4861 39.5933 34.869C39.2104 35.2519 38.6911 35.467 38.1496 35.467Z" fill="#0499DD"/>
</svg>
