<svg width="22" height="22" viewBox="0 0 22 22" fill="none" xmlns="http://www.w3.org/2000/svg">
<path d="M14.2267 6.48253C16.7216 6.48253 18.744 5.76021 18.744 4.86919C18.744 3.97817 16.7216 3.25586 14.2267 3.25586C11.7319 3.25586 9.70938 3.97817 9.70938 4.86919C9.70938 5.76021 11.7319 6.48253 14.2267 6.48253Z" stroke="#0499DD" stroke-width="0.6" stroke-miterlimit="10" stroke-linecap="round" stroke-linejoin="round"/>
<path d="M9.70938 5.19214C9.70938 5.48641 9.70938 6.83387 9.70938 7.12814C9.70938 8.01902 11.7312 8.74147 14.2267 8.74147C16.7222 8.74147 18.744 8.01902 18.744 7.12814C18.744 6.83387 18.744 5.48641 18.744 5.19214" stroke="#0499DD" stroke-width="0.6" stroke-miterlimit="10" stroke-linecap="round" stroke-linejoin="round"/>
<path d="M12.1455 10.819C12.7682 10.9345 13.4762 11 14.2267 11C16.7222 11 18.744 10.2776 18.744 9.38668C18.744 9.09241 18.744 7.74496 18.744 7.45068" stroke="#0499DD" stroke-width="0.6" stroke-miterlimit="10" stroke-linecap="round" stroke-linejoin="round"/>
<path d="M9.70938 7.45068C9.70938 7.74496 9.70938 8.82847 9.70938 8.82847" stroke="#0499DD" stroke-width="0.6" stroke-miterlimit="10" stroke-linecap="round" stroke-linejoin="round"/>
<path d="M12.2987 13.1046C12.8834 13.2034 13.5368 13.2586 14.2267 13.2586C16.7222 13.2586 18.744 12.5364 18.744 11.6452C18.744 11.351 18.744 10.0035 18.744 9.70923" stroke="#0499DD" stroke-width="0.6" stroke-miterlimit="10" stroke-linecap="round" stroke-linejoin="round"/>
<path d="M12.2739 15.3592C12.8647 15.4606 13.5271 15.5174 14.2267 15.5174C16.7222 15.5174 18.744 14.7952 18.744 13.904C18.744 13.6097 18.744 12.2623 18.744 11.968" stroke="#0499DD" stroke-width="0.6" stroke-miterlimit="10" stroke-linecap="round" stroke-linejoin="round"/>
<path d="M7.77328 11.9679C10.2681 11.9679 12.2906 11.2456 12.2906 10.3545C12.2906 9.46352 10.2681 8.74121 7.77328 8.74121C5.27843 8.74121 3.25595 9.46352 3.25595 10.3545C3.25595 11.2456 5.27843 11.9679 7.77328 11.9679Z" stroke="#0499DD" stroke-width="0.6" stroke-miterlimit="10" stroke-linecap="round" stroke-linejoin="round"/>
<path d="M3.25595 10.6775C3.25595 10.9718 3.25595 12.3192 3.25595 12.6135C3.25595 13.5047 5.27778 14.2268 7.77328 14.2268C10.2688 14.2268 12.2906 13.5047 12.2906 12.6135C12.2906 12.3192 12.2906 10.9718 12.2906 10.6775" stroke="#0499DD" stroke-width="0.6" stroke-miterlimit="10" stroke-linecap="round" stroke-linejoin="round"/>
<path d="M3.25595 12.936C3.25595 13.2303 3.25595 14.5778 3.25595 14.872C3.25595 15.7632 5.27778 16.4854 7.77328 16.4854C10.2688 16.4854 12.2906 15.7632 12.2906 14.872C12.2906 14.5778 12.2906 13.2303 12.2906 12.936" stroke="#0499DD" stroke-width="0.6" stroke-miterlimit="10" stroke-linecap="round" stroke-linejoin="round"/>
<path d="M3.25595 15.1946C3.25595 15.4889 3.25595 16.8363 3.25595 17.1306C3.25595 18.0218 5.27778 18.7439 7.77328 18.7439C10.2688 18.7439 12.2906 18.0218 12.2906 17.1306C12.2906 16.8363 12.2906 15.4889 12.2906 15.1946" stroke="#0499DD" stroke-width="0.6" stroke-miterlimit="10" stroke-linecap="round" stroke-linejoin="round"/>
</svg>
