<svg width="30" height="30" viewBox="0 0 30 30" fill="none" xmlns="http://www.w3.org/2000/svg">
<path d="M21.3715 11.7239C21.3836 11.606 21.2911 11.5035 21.1725 11.5035H17.3486V8.85027C17.3486 7.85385 18.009 7.62155 18.4742 7.62155C18.8565 7.62155 20.5467 7.62155 21.1301 7.62155C21.2406 7.62155 21.329 7.53201 21.329 7.42155V3.44034C21.329 3.33018 21.2399 3.24077 21.1298 3.24034L17.3973 3.22577C13.0327 3.22577 12.0395 6.49284 12.0395 8.58357V11.5035H9.71538C9.60492 11.5035 9.51538 11.5931 9.51538 11.7035V15.8173C9.51538 15.9278 9.60492 16.0173 9.71538 16.0173H12.0395C12.0395 21.2363 12.0395 27.4188 12.0395 28.5923C12.0395 28.7028 12.129 28.7898 12.2395 28.7898H17.1486C17.2591 28.7898 17.3486 28.7026 17.3486 28.5922C17.3486 27.4124 17.3486 21.1768 17.3486 16.0173H20.7505C20.8531 16.0173 20.939 15.9397 20.9495 15.8377L21.3715 11.7239Z" stroke="black" stroke-width="2"/>
</svg>
