<svg width="19" height="19" viewBox="0 0 19 19" fill="none" xmlns="http://www.w3.org/2000/svg">
<path d="M18.7774 9.37737C18.7737 10.9842 18.4248 12.4018 17.7198 13.7192C17.0555 14.9623 16.1389 15.9977 14.9848 16.8141C13.9717 17.5303 12.8621 18.0201 11.6487 18.2725C10.3053 18.5508 8.96195 18.5211 7.62972 18.202C6.92464 18.0313 6.24925 17.7715 5.61468 17.4264C5.50706 17.367 5.41429 17.3633 5.29925 17.4004C3.90023 17.8494 2.5012 18.2948 1.10218 18.7401C0.942607 18.792 0.786748 18.8403 0.627178 18.8996C0.515849 18.9405 0.508428 18.8996 0.538115 18.8069C0.701396 18.3282 0.860967 17.8494 1.02425 17.367C1.37308 16.3242 1.7219 15.2815 2.07815 14.2424C2.1264 14.1051 2.05589 14.016 2.00022 13.9196C1.56233 13.1588 1.25062 12.3498 1.05765 11.4963C0.63831 9.65569 0.786748 7.85218 1.49183 6.10432C1.90003 5.09495 2.48265 4.18948 3.22855 3.38792C4.17855 2.3637 5.30296 1.61038 6.60179 1.10569C7.81526 0.634403 9.06956 0.452567 10.361 0.530497C12.1311 0.638114 13.7416 1.22444 15.1555 2.29319C16.985 3.67366 18.1354 5.48831 18.5955 7.74085C18.718 8.31604 18.7625 8.89866 18.7774 9.37737ZM9.74124 2.03343C9.39612 2.01858 8.99163 2.0594 8.58714 2.11878C8.42757 2.14104 8.27171 2.17444 8.11585 2.21526C5.70374 2.82757 3.97073 4.26741 2.95022 6.53479C2.36019 7.84475 2.20062 9.22893 2.42327 10.6465C2.59769 11.7672 3.01331 12.7989 3.66272 13.7303C3.73323 13.8342 3.74437 13.9233 3.70355 14.0383C3.42894 14.8436 3.16175 15.6526 2.89085 16.4616C2.87601 16.5061 2.83148 16.558 2.8723 16.5989C2.91312 16.6434 2.96507 16.5951 3.0096 16.5803C3.8223 16.3205 4.63499 16.0645 5.44026 15.7936C5.62581 15.7305 5.75941 15.7602 5.91898 15.8567C7.74105 16.9514 9.68929 17.2408 11.7414 16.6953C13.3 16.2834 14.584 15.4336 15.6008 14.1793C16.5842 12.9658 17.1334 11.578 17.2448 10.0268C17.3301 8.83558 17.1446 7.67776 16.6696 6.5719C16.0721 5.1803 15.1407 4.06702 13.8826 3.23948C12.6506 2.4305 11.2887 2.01487 9.74124 2.03343Z" fill="#282828"/>
<path d="M5.3103 7.33281C5.32515 6.49785 5.65171 5.81132 6.28999 5.27695C6.47183 5.1248 6.69077 5.06172 6.93198 5.10254C7.03589 5.11738 7.14351 5.13222 7.2437 5.12109C7.49604 5.10254 7.64077 5.24355 7.7187 5.45136C7.9562 6.0748 8.18628 6.70195 8.42007 7.32539C8.4646 7.44414 8.45347 7.55175 8.3978 7.66308C8.25308 7.96367 8.023 8.19746 7.79292 8.43125C7.59253 8.63535 7.5814 8.70214 7.7187 8.95078C8.38296 10.1531 9.29956 11.0883 10.5687 11.6561C10.6318 11.682 10.6875 11.7266 10.7468 11.7525C10.9064 11.8305 11.0511 11.823 11.1847 11.6857C11.4445 11.4223 11.6857 11.1402 11.9195 10.8508C12.1013 10.6244 12.1867 10.591 12.4427 10.7061C13.0662 10.9955 13.6599 11.3332 14.2648 11.6598C14.4652 11.7674 14.4875 11.9158 14.4578 12.1867C14.3353 13.2889 13.4929 13.7898 12.5318 13.9494C12.2089 14.0014 11.9046 13.9717 11.6003 13.8752C10.7097 13.5932 9.83394 13.2666 9.04722 12.7545C8.31245 12.2758 7.68159 11.6783 7.12866 10.9992C6.59058 10.335 6.11187 9.63359 5.71479 8.87285C5.49214 8.43867 5.3103 7.76328 5.3103 7.33281Z" fill="#282828"/>
</svg>
