<svg width="27" height="18" viewBox="0 0 27 18" fill="none" xmlns="http://www.w3.org/2000/svg">
<path d="M25.89 14C24.7066 12.137 23.3215 10.4099 21.76 8.85003C21.7316 8.81456 21.7162 8.77047 21.7162 8.72503C21.7162 8.67959 21.7316 8.6355 21.76 8.60003C23.1037 6.76602 24.2912 4.82254 25.31 2.79003C25.4574 2.49919 25.5275 2.17531 25.5135 1.84956C25.4995 1.52381 25.4019 1.20714 25.23 0.930028C25.0733 0.648376 24.8443 0.413676 24.5665 0.250181C24.2887 0.0866858 23.9724 0.000326677 23.65 2.80926e-05H20.65C20.2694 0.00741492 19.8987 0.12332 19.5816 0.334121C19.2645 0.544922 19.0142 0.841857 18.86 1.19003C17.9887 3.11719 16.9444 4.9614 15.74 6.70003V1.80003C15.7414 1.56328 15.6957 1.32862 15.6057 1.10963C15.5157 0.890647 15.3832 0.691689 15.2158 0.524279C15.0484 0.356869 14.8494 0.224332 14.6304 0.134344C14.4115 0.0443549 14.1768 -0.00129827 13.94 2.80926e-05H9.56005C9.30507 0.00399251 9.05601 0.0775265 8.83977 0.212692C8.62352 0.347857 8.4483 0.539519 8.33302 0.766988C8.21775 0.994457 8.16679 1.24909 8.18565 1.50341C8.20451 1.75772 8.29247 2.00205 8.44005 2.21003L8.84005 2.77003C9.0546 3.07816 9.16976 3.44456 9.17005 3.82003V7.66003C7.84999 5.70717 6.80045 3.58455 6.05005 1.35003C5.91473 0.956273 5.6599 0.614564 5.3211 0.372561C4.98229 0.130558 4.57641 0.000325416 4.16005 2.80926e-05H1.71005C1.44973 0.00314067 1.19347 0.0649639 0.960374 0.18089C0.727274 0.296815 0.523342 0.463854 0.363778 0.669557C0.204214 0.87526 0.0931326 1.11432 0.0388118 1.36893C-0.0155091 1.62353 -0.0116681 1.88711 0.0500484 2.14003C1.40005 7.87003 4.23005 12.62 7.82005 15.14C8.0352 15.2929 8.30205 15.3545 8.56243 15.3114C8.82281 15.2683 9.0556 15.124 9.21005 14.91C9.28729 14.8032 9.34262 14.6821 9.37288 14.5537C9.40313 14.4254 9.4077 14.2923 9.38632 14.1622C9.36494 14.0321 9.31804 13.9074 9.24832 13.7955C9.17859 13.6836 9.08742 13.5866 8.98005 13.51C5.84005 11.31 3.34005 7.12003 2.07005 2.00003H4.17005C5.09028 4.79592 6.47647 7.41616 8.27005 9.75003C8.47735 10.0149 8.76284 10.2077 9.08597 10.3011C9.40911 10.3944 9.75344 10.3835 10.07 10.27C10.3949 10.1568 10.6759 9.94424 10.8733 9.66248C11.0707 9.38073 11.1745 9.04403 11.17 8.70003V3.82003C11.1722 3.18433 11.014 2.55836 10.71 2.00003H13.71V7.43003C13.7065 7.81857 13.8308 8.19749 14.064 8.50833C14.2971 8.81918 14.626 9.04467 15 9.15003C15.3629 9.27079 15.7554 9.26864 16.117 9.14391C16.4785 9.01919 16.7888 8.77884 17 8.46003C18.4204 6.43363 19.6332 4.26939 20.62 2.00003H23.42C22.4669 3.8741 21.3668 5.66972 20.13 7.37003C19.8182 7.78722 19.6668 8.30267 19.7035 8.82224C19.7402 9.34181 19.9626 9.83084 20.33 10.2C21.7886 11.6698 23.1014 13.2773 24.25 15H20.9C19.8666 13.2893 18.4788 11.8197 16.83 10.69C16.5827 10.5088 16.2894 10.4005 15.9836 10.3775C15.6778 10.3546 15.3717 10.4178 15.1 10.56C14.8207 10.703 14.5867 10.9209 14.4242 11.1894C14.2617 11.4578 14.1772 11.7662 14.18 12.08V14.46C14.1855 14.599 14.1362 14.7345 14.0426 14.8374C13.9491 14.9403 13.8189 15.0023 13.68 15.01H12.82C12.5548 15.01 12.3005 15.1154 12.1129 15.3029C11.9254 15.4905 11.82 15.7448 11.82 16.01C11.82 16.2752 11.9254 16.5296 12.1129 16.7171C12.3005 16.9047 12.5548 17.01 12.82 17.01H13.68C14.0118 17.0074 14.3398 16.9393 14.6452 16.8096C14.9506 16.6799 15.2274 16.4912 15.4597 16.2543C15.692 16.0174 15.8752 15.7369 15.9988 15.429C16.1224 15.1211 16.184 14.7918 16.18 14.46V12.69C17.383 13.5949 18.4013 14.7219 19.18 16.01C19.352 16.308 19.5978 16.5565 19.8939 16.7317C20.1899 16.9069 20.5261 17.0028 20.87 17.01H24.25C24.5957 17.0109 24.9351 16.9184 25.2326 16.7424C25.53 16.5664 25.7744 16.3134 25.94 16.01C26.1099 15.7004 26.1948 15.3513 26.186 14.9983C26.1772 14.6452 26.0751 14.3008 25.89 14Z" fill="black"/>
</svg>
